name GIL12_xslow1Moments.mot
datacolumns 7
datarows 40
range 1.01666677 1.34166682
endheader

                time	          RHipMoment	          LHipMoment	         RKneeMoment	         LKneeMoment	        RAnkleMoment	        LAnkleMoment	
          1.01666677	        175.71398926	       -292.25076294	       -181.04173279	          4.66307545	        -25.84908104	        563.98309326	
          1.02500010	        155.05874634	       -282.46041870	       -147.09957886	         22.80334473	        -23.30145073	        512.85711670	
          1.03333342	        167.85597229	       -268.70263672	       -128.95487976	         36.26043701	        -22.29248238	        462.83355713	
          1.04166675	        194.95971680	       -255.18815613	       -121.79295349	         44.86118317	        -22.87079811	        413.77355957	
          1.05000007	        240.33213806	       -244.20494080	       -124.06123352	         52.53661728	        -23.94024658	        364.94982910	
          1.05833340	        293.23410034	       -232.58103943	       -137.45701599	         55.94500732	        -26.59659195	        318.32894897	
          1.06666684	        339.83071899	       -220.30439758	       -153.31808472	         57.17455673	        -30.80394363	        274.11221313	
          1.07500005	        348.88131714	       -209.03602600	       -159.08094788	         55.78179169	        -38.73783493	        233.88043213	
          1.08333349	        340.98059082	       -201.60470581	       -160.10844421	         56.66280365	        -46.18051910	        196.46510315	
          1.09166670	        329.48303223	       -194.50450134	       -162.73477173	         56.87508011	        -52.14835739	        163.23417664	
          1.10000014	        322.10150146	       -188.22740173	       -166.55642700	         55.67818451	        -56.77489471	        135.48805237	
          1.10833335	        317.09533691	       -184.11375427	       -169.16616821	         55.43562698	        -58.69029236	        110.63683319	
          1.11666679	        310.05578613	       -174.61061096	       -167.89913940	         51.81867218	        -55.81423569	         89.20324707	
          1.12500012	        291.20788574	       -164.37428284	       -156.34590149	         48.07204056	        -51.83459854	         69.89263916	
          1.13333344	        263.26483154	       -147.78164673	       -137.79388428	         39.14697647	        -45.41792297	         54.89803314	
          1.14166677	        232.94149780	       -133.12472534	       -115.77320862	         30.48638725	        -39.03077316	         40.97345734	
          1.15000010	        207.87670898	       -122.14328766	        -95.36875153	         24.00609398	        -31.85642433	         27.60299301	
          1.15833342	        189.08262634	       -117.50807953	        -77.83713531	         21.20433044	        -24.07326317	         15.31128407	
          1.16666675	        177.41578674	       -124.15711212	        -63.23912048	         25.49939156	        -17.27715874	          3.39969492	
          1.17500007	        170.27046204	       -129.65628052	        -49.46544266	         29.91189575	        -13.62205791	         -5.44757938	
          1.18333340	        172.15699768	       -148.70581055	        -40.44352722	         45.27632904	         -9.64613819	        -15.33873463	
          1.19166672	        177.95051575	       -162.68159485	        -33.82629013	         60.79227066	         -6.91649771	        -24.83189774	
          1.20000005	        178.90950012	       -134.98385620	        -25.39020538	         54.90154266	         -6.25550413	        -28.29110527	
          1.20833337	        174.31417847	        -22.93116951	        -16.35630417	         -1.08451390	         -5.51479769	        -21.44479561	
          1.21666682	        163.88107300	        -24.91252327	         -7.08254051	          9.10184193	         -3.21549368	        -20.59413338	
          1.22500014	        144.31455994	        -31.42716599	          4.88468409	         19.20436287	         -0.47423914	        -18.51785088	
          1.23333347	        119.12573242	        -44.06039047	         18.73809052	         29.57449150	          3.19670701	        -15.71097088	
          1.24166679	         92.30562592	        -63.56070709	         32.39381409	         39.86138535	          8.08442688	        -12.72816181	
          1.25000012	         68.60092926	        -85.57316589	         44.00400162	         49.09195709	         13.81763363	        -10.05169392	
          1.25833344	         46.84040451	       -106.95569611	         54.02779770	         56.37389374	         19.45443344	         -7.99656868	
          1.26666677	         26.72535133	       -122.66513824	         63.12509537	         60.76183319	         25.84550858	         -6.71246624	
          1.27500010	          8.26710224	       -130.36003113	         72.40829468	         61.84967041	         31.00343132	         -6.17433882	
          1.28333342	         -8.47793484	       -129.40263367	         81.11738586	         59.72477722	         35.84668732	         -6.20062256	
          1.29166675	        -21.63431740	       -122.98825073	         87.57436371	         55.30855942	         41.22320175	         -6.59102726	
          1.30000007	        -34.14538574	       -114.06410217	         95.47337341	         49.77621078	         44.70629120	         -7.18992138	
          1.30833340	        -41.96352005	       -105.15525055	        101.12436676	         44.12523651	         49.63901520	         -7.82744503	
          1.31666672	        -46.24132919	        -97.52614594	        104.05338287	         39.19671249	         56.55376434	         -8.30270386	
          1.32500005	        -52.89821243	        -92.03005981	        107.68711090	         35.53329849	         64.27239227	         -8.55489159	
          1.33333337	        -57.75037384	        -88.08660126	        108.74812317	         33.04251862	         75.32556152	         -8.63881111	
          1.34166682	        -61.86681747	        -83.85848999	        107.88593292	         31.24703217	         89.14250183	         -8.64539433	
